<?xml version="1.0" standalone="no"?>
<!DOCTYPE svg PUBLIC "-//W3C//DTD SVG 20010904//EN"
 "http://www.w3.org/TR/2001/REC-SVG-20010904/DTD/svg10.dtd">
<svg version="1.0" xmlns="http://www.w3.org/2000/svg"
 width="160.000000pt" height="169.000000pt" viewBox="0 0 160.000000 169.000000"
 preserveAspectRatio="xMidYMid meet">

<g transform="translate(0.000000,169.000000) scale(0.100000,-0.100000)"
fill="#2196F3" stroke="none">
<path d="M774 1413 c-101 -96 -158 -177 -187 -269 -29 -87 -30 -141 -7 -272
25 -145 21 -193 -20 -234 -33 -32 -91 -38 -127 -13 -30 21 -57 98 -57 167 l-1
60 -34 -39 c-18 -21 -45 -63 -60 -93 -23 -49 -26 -67 -26 -165 0 -100 3 -116
28 -170 15 -33 47 -79 70 -103 98 -101 166 -98 265 13 100 113 140 240 129
418 -5 87 -4 88 16 70 38 -34 116 -155 133 -205 12 -36 15 -72 12 -127 -4 -66
-12 -91 -57 -188 -29 -62 -51 -121 -49 -130 12 -65 276 29 394 139 61 58 119
166 135 253 30 162 -15 329 -130 485 -45 62 -156 168 -166 158 -2 -2 4 -31 14
-64 39 -125 34 -213 -13 -222 -59 -12 -164 68 -203 155 -42 92 -41 271 3 394
7 22 10 39 6 39 -4 0 -35 -26 -68 -57z"/>
</g>
</svg>
